<?xml version="1.0" encoding="UTF-8"?>
<svg version="1.1" xmlns="http://www.w3.org/2000/svg" width="414" height="469">
<path d="M0 0 C0.81726563 0.30035156 1.63453125 0.60070313 2.4765625 0.91015625 C4.7286524 1.82929541 6.84766755 2.86719345 9 4 C9.92039062 4.46921875 10.84078125 4.9384375 11.7890625 5.421875 C21.31730063 10.59223677 31.77955685 17.65824553 36 28 C36.22213706 30.74892389 36.30199843 33.26719797 36.23046875 36.00390625 C36.22836736 37.56575393 36.22776566 39.12760421 36.22851562 40.68945312 C36.21412854 43.11648063 36.18796606 45.54153143 36.1340332 47.96801758 C35.89672423 60.23651455 37.72748317 67.05794932 45 77 C56.10336651 97.46938885 57.48708458 119.95441784 51 142 C48.21608037 150.24002966 44.4047229 159.22681219 38.43346214 165.69758224 C36.44696033 168.88828878 36.62932155 171.24918626 36.63491821 174.99493408 C36.63179922 175.69916181 36.62868022 176.40338954 36.6254667 177.12895751 C36.61852228 179.48885619 36.63285602 181.8481482 36.64697266 184.20800781 C36.64614185 185.9000307 36.64392567 187.5920534 36.64042664 189.28407288 C36.63547497 192.92853754 36.63957901 196.57284136 36.65044022 200.21729279 C36.66679176 205.98312522 36.65833928 211.74875557 36.64559937 217.5145874 C36.61546821 232.87600745 36.61692616 248.23739154 36.63585222 263.59882617 C36.6481926 273.68839315 36.64630289 283.77773147 36.61746442 293.86727214 C36.60224206 299.59552155 36.60969662 305.32315002 36.63417459 311.05136061 C36.64426394 314.62129993 36.63353319 318.19095612 36.61705971 321.76086235 C36.61361543 323.4119942 36.61867377 325.06316989 36.63302803 326.71424294 C36.7659439 343.01672881 36.7659439 343.01672881 31 349 C28.58203125 351.00390625 28.58203125 351.00390625 25.8125 352.5625 C24.68585938 353.2121875 23.55921875 353.861875 22.3984375 354.53125 C21.39635254 355.09199219 21.39635254 355.09199219 20.37402344 355.6640625 C17.49779854 357.28260453 14.64377148 358.93755684 11.7890625 360.59375 C6.26991498 363.79350238 0.74084758 366.9754735 -4.79345703 370.14892578 C-9.05993355 372.6118788 -13.30028919 375.11857569 -17.53686523 377.63256836 C-22.63548771 380.46311494 -27.29685384 380.8859979 -33 380 C-40.9713882 376.93629779 -48.28179163 372.34057011 -55.54956055 367.90063477 C-61.96497776 363.98176603 -68.48156145 360.24428974 -75 356.5 C-79.33463994 354.00226094 -83.66761625 351.50165002 -88 349 C-88.84385254 348.51370117 -89.68770508 348.02740234 -90.55712891 347.52636719 C-92.64736283 346.31771937 -94.73118592 345.09892414 -96.8125 343.875 C-97.91207031 343.23304688 -99.01164063 342.59109375 -100.14453125 341.9296875 C-105.59306245 338.24764316 -109.14617396 334.3710926 -111 328 C-111.41600896 324.51380593 -111.40529959 321.06161745 -111.38095093 317.55386353 C-111.3856309 316.51448777 -111.39031087 315.47511201 -111.39513266 314.40424001 C-111.40708087 310.92772872 -111.39762552 307.45161175 -111.38818359 303.97509766 C-111.3922496 301.4795102 -111.39759165 298.98392454 -111.40411377 296.48834229 C-111.41637542 290.41487074 -111.41457626 284.34155334 -111.40587585 278.26808782 C-111.39908973 273.32512276 -111.39818661 268.38218882 -111.4014473 263.43922043 C-111.401907 262.73458467 -111.40236669 262.02994891 -111.40284032 261.30396055 C-111.40379957 259.87219672 -111.40477221 258.44043288 -111.4057581 257.00866906 C-111.41431083 243.58451489 -111.40448295 230.16042219 -111.388357 216.7362781 C-111.37498309 205.24847088 -111.3772579 193.76075475 -111.39111328 182.27294922 C-111.40722165 168.91103378 -111.41345624 155.54917239 -111.40427649 142.18724859 C-111.40332094 140.75781148 -111.40237783 139.32837435 -111.4014473 137.89893723 C-111.40098447 137.19578202 -111.40052164 136.49262681 -111.40004479 135.76816387 C-111.39746842 130.84329939 -111.4017971 125.9184695 -111.40888596 120.99361038 C-111.41825267 114.34018777 -111.41144149 107.68696152 -111.39420319 101.03354645 C-111.39026372 98.60249742 -111.39132835 96.17143387 -111.39799118 93.74039078 C-111.4688304 65.24720865 -107.42279019 41.10010289 -86.87109375 19.8515625 C-64.39465878 -2.72302284 -30.35766985 -11.51360444 0 0 Z M-79.7265625 26.70703125 C-90.28680507 37.35799755 -100.03399264 53.77536067 -100.1875 69.1875 C-100.125625 70.115625 -100.06375 71.04375 -100 72 C-96.85351172 67.97169334 -94.19351761 63.64003686 -91.4921875 59.30859375 C-84.61248206 48.44714098 -75.90015963 41.31398311 -64.625 35.25 C-63.95436523 34.88543701 -63.28373047 34.52087402 -62.59277344 34.14526367 C-52.16180243 28.72517638 -42.51069974 26.30450796 -30.75 26.5 C-29.56559326 26.51353516 -28.38118652 26.52707031 -27.16088867 26.54101562 C-8.7553747 26.97387929 8.2151592 32.63215229 22.3984375 44.65234375 C23.97313081 46.08393565 23.97313081 46.08393565 26 47 C27.29793661 35.64699338 27.29793661 35.64699338 23.375 25.5 C-6.80523075 -1.68057293 -50.46071064 -0.85087658 -79.7265625 26.70703125 Z M32 76 C30.93597921 89.36710871 30.93597921 89.36710871 37.17578125 100.83984375 C39.80510559 103.95336914 41.29487305 107.31692579 43 111 C43.33 111 43.66 111 44 111 C44.21434196 105.33254648 43.65841239 100.6012633 41.875 95.1875 C41.65561768 94.50042969 41.43623535 93.81335938 41.21020508 93.10546875 C39.17566873 87.00683759 36.37445005 81.4733348 33 76 C32.67 76 32.34 76 32 76 Z M-22 109 C-23.63171123 110.40893147 -25.25513945 111.82745958 -26.875 113.25 C-28.23238281 114.43335938 -28.23238281 114.43335938 -29.6171875 115.640625 C-31.74439993 117.74691403 -32.90512306 119.25651526 -34 122 C-30.76823243 123.61588379 -27.49384717 123.57451407 -24 123 C-20.83333333 121.16666667 -20.83333333 121.16666667 -19 118 C-18.60043876 115.19269313 -18.75775762 112.85846006 -19 110 C-19.99 109.67 -20.98 109.34 -22 109 Z M-55 141 C-48.65138549 148.40671692 -39.63173475 152.1618185 -30 153 C-19.51841377 153.26242558 -9.96761838 149.79420549 -2 143 C-2.495 142.01 -2.495 142.01 -3 141 C-3.59425781 141.26554688 -4.18851563 141.53109375 -4.80078125 141.8046875 C-19.40348941 148.02730342 -33.99233817 148.47765683 -49 143 C-50.19625 142.608125 -51.3925 142.21625 -52.625 141.8125 C-53.40875 141.544375 -54.1925 141.27625 -55 141 Z " fill="#D2EEF2" transform="translate(241,58)"/>
<path d="M0 0 C0.81726563 0.30035156 1.63453125 0.60070313 2.4765625 0.91015625 C4.7286524 1.82929541 6.84766755 2.86719345 9 4 C9.92039062 4.46921875 10.84078125 4.9384375 11.7890625 5.421875 C21.31730063 10.59223677 31.77955685 17.65824553 36 28 C36.22213706 30.74892389 36.30199843 33.26719797 36.23046875 36.00390625 C36.22836736 37.56575393 36.22776566 39.12760421 36.22851562 40.68945312 C36.21412854 43.11648063 36.18796606 45.54153143 36.1340332 47.96801758 C35.89672423 60.23651455 37.72748317 67.05794932 45 77 C56.10336651 97.46938885 57.48708458 119.95441784 51 142 C48.21608037 150.24002966 44.4047229 159.22681219 38.43346214 165.69758224 C36.44696033 168.88828878 36.62932155 171.24918626 36.63491821 174.99493408 C36.63179922 175.69916181 36.62868022 176.40338954 36.6254667 177.12895751 C36.61852228 179.48885619 36.63285602 181.8481482 36.64697266 184.20800781 C36.64614185 185.9000307 36.64392567 187.5920534 36.64042664 189.28407288 C36.63547497 192.92853754 36.63957901 196.57284136 36.65044022 200.21729279 C36.66679176 205.98312522 36.65833928 211.74875557 36.64559937 217.5145874 C36.61546821 232.87600745 36.61692616 248.23739154 36.63585222 263.59882617 C36.6481926 273.68839315 36.64630289 283.77773147 36.61746442 293.86727214 C36.60224206 299.59552155 36.60969662 305.32315002 36.63417459 311.05136061 C36.64426394 314.62129993 36.63353319 318.19095612 36.61705971 321.76086235 C36.61361543 323.4119942 36.61867377 325.06316989 36.63302803 326.71424294 C36.7659439 343.01672881 36.7659439 343.01672881 31 349 C28.58203125 351.00390625 28.58203125 351.00390625 25.8125 352.5625 C24.68585938 353.2121875 23.55921875 353.861875 22.3984375 354.53125 C21.39635254 355.09199219 21.39635254 355.09199219 20.37402344 355.6640625 C17.49779854 357.28260453 14.64377148 358.93755684 11.7890625 360.59375 C6.26991498 363.79350238 0.74084758 366.9754735 -4.79345703 370.14892578 C-9.05993355 372.6118788 -13.30028919 375.11857569 -17.53686523 377.63256836 C-22.63548771 380.46311494 -27.29685384 380.8859979 -33 380 C-40.9713882 376.93629779 -48.28179163 372.34057011 -55.54956055 367.90063477 C-61.96497776 363.98176603 -68.48156145 360.24428974 -75 356.5 C-79.33463994 354.00226094 -83.66761625 351.50165002 -88 349 C-88.84385254 348.51370117 -89.68770508 348.02740234 -90.55712891 347.52636719 C-92.64736283 346.31771937 -94.73118592 345.09892414 -96.8125 343.875 C-97.91207031 343.23304688 -99.01164063 342.59109375 -100.14453125 341.9296875 C-105.59306245 338.24764316 -109.14617396 334.3710926 -111 328 C-111.41600896 324.51380593 -111.40529959 321.06161745 -111.38095093 317.55386353 C-111.3856309 316.51448777 -111.39031087 315.47511201 -111.39513266 314.40424001 C-111.40708087 310.92772872 -111.39762552 307.45161175 -111.38818359 303.97509766 C-111.3922496 301.4795102 -111.39759165 298.98392454 -111.40411377 296.48834229 C-111.41637542 290.41487074 -111.41457626 284.34155334 -111.40587585 278.26808782 C-111.39908973 273.32512276 -111.39818661 268.38218882 -111.4014473 263.43922043 C-111.401907 262.73458467 -111.40236669 262.02994891 -111.40284032 261.30396055 C-111.40379957 259.87219672 -111.40477221 258.44043288 -111.4057581 257.00866906 C-111.41431083 243.58451489 -111.40448295 230.16042219 -111.388357 216.7362781 C-111.37498309 205.24847088 -111.3772579 193.76075475 -111.39111328 182.27294922 C-111.40722165 168.91103378 -111.41345624 155.54917239 -111.40427649 142.18724859 C-111.40332094 140.75781148 -111.40237783 139.32837435 -111.4014473 137.89893723 C-111.40098447 137.19578202 -111.40052164 136.49262681 -111.40004479 135.76816387 C-111.39746842 130.84329939 -111.4017971 125.9184695 -111.40888596 120.99361038 C-111.41825267 114.34018777 -111.41144149 107.68696152 -111.39420319 101.03354645 C-111.39026372 98.60249742 -111.39132835 96.17143387 -111.39799118 93.74039078 C-111.4688304 65.24720865 -107.42279019 41.10010289 -86.87109375 19.8515625 C-64.39465878 -2.72302284 -30.35766985 -11.51360444 0 0 Z M-79.7265625 26.70703125 C-85.43694311 32.46647011 -89.50056874 38.56365209 -93.1875 45.75 C-93.5086377 46.36883057 -93.82977539 46.98766113 -94.16064453 47.62524414 C-95.19123463 49.72130995 -96.09728249 51.84555272 -97 54 C-97.3434313 54.78671837 -97.6868626 55.57343674 -98.04070091 56.38399506 C-102.37896718 68.04225739 -101.57673295 80.18363414 -101.54931641 92.44726562 C-101.55802058 95.02232451 -101.56839019 97.59737822 -101.58029175 100.17242432 C-101.60565804 106.41349127 -101.60939004 112.65438564 -101.60469122 118.89549547 C-101.60111364 123.96714886 -101.60464804 129.03875016 -101.61314011 134.11039734 C-101.61433048 134.834337 -101.61552086 135.55827666 -101.61674731 136.30415389 C-101.61917094 137.7750793 -101.62159921 139.2460047 -101.62403207 140.71693009 C-101.64572949 154.47553315 -101.64148094 168.23403788 -101.62926237 181.9926464 C-101.61890353 194.57889232 -101.64149803 207.16482966 -101.67945881 219.75101453 C-101.71818741 232.6912515 -101.73473422 245.63134231 -101.72721231 258.57163763 C-101.72338712 265.83031744 -101.72837617 273.08873387 -101.75664139 280.34736633 C-101.78291726 287.16350644 -101.77798912 293.97892493 -101.75181961 300.79509735 C-101.74707264 303.29892432 -101.75261253 305.80279455 -101.76906586 308.30657196 C-101.78987438 311.71833532 -101.77390754 315.1279872 -101.7484436 318.53967285 C-101.76319217 319.53566954 -101.77794074 320.53166623 -101.79313624 321.55784464 C-101.80849591 326.45544087 -101.80849591 326.45544087 -99.69379115 330.70198345 C-97.92753329 332.27087844 -97.92753329 332.27087844 -95 334 C-94.25427734 334.48275391 -93.50855469 334.96550781 -92.74023438 335.46289062 C-91.67772461 336.05360352 -91.67772461 336.05360352 -90.59375 336.65625 C-89.37171875 337.34364258 -89.37171875 337.34364258 -88.125 338.04492188 C-86.825625 338.76518555 -86.825625 338.76518555 -85.5 339.5 C-83.61374818 340.56101665 -81.72835834 341.62356689 -79.84375 342.6875 C-78.87695312 343.23277344 -77.91015625 343.77804687 -76.9140625 344.33984375 C-72.24148136 347.00183703 -67.62224449 349.75186179 -63 352.5 C-61.17598402 353.57586469 -59.35176471 354.65138472 -57.52734375 355.7265625 C-53.73214964 357.96570675 -49.95833745 360.23711691 -46.19140625 362.5234375 C-44.31550388 363.64129604 -42.43921527 364.75850673 -40.5625 365.875 C-39.70462891 366.40544922 -38.84675781 366.93589844 -37.96289062 367.48242188 C-34.26919865 369.65638991 -31.82118484 370.9698564 -27.48828125 371.12890625 C-22.85184411 369.62842435 -18.83845401 367.48873839 -14.625 365.0625 C-13.75375488 364.57177002 -12.88250977 364.08104004 -11.98486328 363.57543945 C-9.31465518 362.06474679 -6.65553626 360.5363181 -4 359 C-2.80020508 358.30632324 -2.80020508 358.30632324 -1.57617188 357.59863281 C2.69967375 355.11734116 6.95419474 352.6024406 11.19775391 350.06640625 C12.83325577 349.09866416 14.4842121 348.15715975 16.13671875 347.21875 C17.01972656 346.7134375 17.90273438 346.208125 18.8125 345.6875 C19.54082031 345.27886719 20.26914062 344.87023437 21.01953125 344.44921875 C23.62771711 342.5406646 25.19872318 340.69935939 27 338 C27.58683385 334.61389446 27.58683385 334.61389446 27.47860718 330.84684753 C27.48187503 330.13768183 27.48514289 329.42851612 27.48850977 328.69786054 C27.49474798 326.32705472 27.47260676 323.95736984 27.45068359 321.58666992 C27.44959491 319.88464884 27.45034817 318.18262573 27.45280457 316.48060608 C27.45459273 312.81754523 27.4442342 309.15478983 27.42472458 305.49178123 C27.39483082 299.69645189 27.39741294 293.90141766 27.40542603 288.10603333 C27.42052447 273.70986433 27.39879453 259.31377847 27.35760498 244.91766357 C27.32565235 233.73203898 27.306416 222.54675578 27.32911742 211.36109048 C27.33936364 205.60343123 27.32206509 199.84672249 27.28397727 194.08918989 C27.2664115 190.50175318 27.27383885 186.91468357 27.28812599 183.32724571 C27.2897035 181.66803174 27.28105306 180.00877047 27.26122475 178.34967422 C27.08956627 163.1698408 27.08956627 163.1698408 32.51941872 157.47975636 C33.00801054 156.99143676 33.49660236 156.50311716 34 156 C43.75760879 139.80159806 48.38037278 120.48054749 44.15234375 101.734375 C41.3468536 91.31650366 36.58657955 79.8611964 29.9152832 71.3359375 C27.46989149 67.07668545 27.39802555 63.92168331 27.390625 59.1015625 C27.37408875 58.26660248 27.35755249 57.43164246 27.34051514 56.57138062 C27.29219655 53.92251105 27.27070075 51.27421488 27.25 48.625 C27.22182672 46.82158599 27.19189739 45.0181985 27.16015625 43.21484375 C27.08644228 38.80994308 27.03676943 34.4053577 27 30 C26.34 30 25.68 30 25 30 C24.60554688 29.11054687 24.60554688 29.11054687 24.203125 28.203125 C18.62543484 17.98943263 2.97530227 10.92615387 -7.6875 7.75 C-34.58583406 1.65981116 -59.4776789 7.63986483 -79.7265625 26.70703125 Z " fill="#45494D" transform="translate(241,58)"/>
<path d="M0 0 C3 0.25 3 0.25 5 2.25 C5.22705078 4.68017578 5.22705078 4.68017578 5.1953125 7.6953125 C5.18886719 8.77167969 5.18242187 9.84804687 5.17578125 10.95703125 C5.15902344 12.08496094 5.14226562 13.21289062 5.125 14.375 C5.11597656 15.51066406 5.10695312 16.64632812 5.09765625 17.81640625 C5.07403098 20.62781299 5.04109013 23.43880298 5 26.25 C5.59748047 26.30260986 6.19496094 26.35521973 6.81054688 26.40942383 C20.0352366 27.70052036 30.38106139 34.54597438 38.98828125 44.53515625 C42.15344571 48.80659178 44.20524628 53.26541088 46 58.25 C46.24492187 58.92675781 46.48984375 59.60351562 46.7421875 60.30078125 C50.262416 71.94646867 47.77355711 84.52698426 42.875 95.375 C38.00504192 104.44420336 30.85064567 111.15622496 22 116.25 C21.05125 116.8275 20.1025 117.405 19.125 118 C14.54761002 119.83095599 9.85186383 120.49114691 5 121.25 C5.01571045 121.89549805 5.0314209 122.54099609 5.04760742 123.20605469 C5.11005802 126.13728029 5.1490223 129.06836579 5.1875 132 C5.21263672 133.01578125 5.23777344 134.0315625 5.26367188 135.078125 C5.27333984 136.0578125 5.28300781 137.0375 5.29296875 138.046875 C5.3086792 138.94760742 5.32438965 139.84833984 5.34057617 140.77636719 C4.93761772 143.70308763 3.9344597 145.06341349 2 147.25 C-2.75 146.5 -2.75 146.5 -5 144.25 C-5.22705078 141.91162109 -5.22705078 141.91162109 -5.1953125 139.0234375 C-5.18886719 137.9921875 -5.18242187 136.9609375 -5.17578125 135.8984375 C-5.15902344 134.81820312 -5.14226562 133.73796875 -5.125 132.625 C-5.11597656 131.53703125 -5.10695312 130.4490625 -5.09765625 129.328125 C-5.07403409 126.63519848 -5.04109556 123.94270745 -5 121.25 C-5.71720215 121.14115479 -6.4344043 121.03230957 -7.17333984 120.92016602 C-19.83150868 118.83947288 -29.86154026 113.29565435 -38 103.25 C-46.52550838 91.35176303 -49.33096125 78.55593677 -47.76171875 64.046875 C-45.04342257 50.97708731 -36.57196944 39.76201024 -25.6875 32.375 C-19.52535569 28.69857257 -12.28864858 25.25 -5 25.25 C-5.01571045 24.22060303 -5.01571045 24.22060303 -5.03173828 23.17041016 C-5.07321874 20.07197711 -5.09930069 16.97360239 -5.125 13.875 C-5.14175781 12.79476562 -5.15851563 11.71453125 -5.17578125 10.6015625 C-5.18544922 9.0546875 -5.18544922 9.0546875 -5.1953125 7.4765625 C-5.21102295 6.04691162 -5.21102295 6.04691162 -5.22705078 4.58837891 C-4.86304802 0.83954192 -3.64004591 0.30333716 0 0 Z M6 68.25 C4.36828877 69.65893147 2.74486055 71.07745958 1.125 72.5 C-0.23238281 73.68335938 -0.23238281 73.68335938 -1.6171875 74.890625 C-3.74439993 76.99691403 -4.90512306 78.50651526 -6 81.25 C-2.76823243 82.86588379 0.50615283 82.82451407 4 82.25 C7.16666667 80.41666667 7.16666667 80.41666667 9 77.25 C9.39956124 74.44269313 9.24224238 72.10846006 9 69.25 C8.01 68.92 7.02 68.59 6 68.25 Z M-27 100.25 C-20.65138549 107.65671692 -11.63173475 111.4118185 -2 112.25 C8.48158623 112.51242558 18.03238162 109.04420549 26 102.25 C25.505 101.26 25.505 101.26 25 100.25 C24.40574219 100.51554687 23.81148437 100.78109375 23.19921875 101.0546875 C8.59651059 107.27730342 -5.99233817 107.72765683 -21 102.25 C-22.19625 101.858125 -23.3925 101.46625 -24.625 101.0625 C-25.40875 100.794375 -26.1925 100.52625 -27 100.25 Z " fill="#3C4246" transform="translate(213,98.75)"/>
<path d="M0 0 C1.98 0.99 3.96 1.98 6 3 C5.7861413 7.27717399 4.88525414 9.22139366 1.98866272 12.17736816 C-2.79988613 18.44438777 -1.79153542 26.15764648 -1.69360352 33.66210938 C-1.69358804 35.3547231 -1.6962845 37.04733869 -1.70147705 38.73994446 C-1.70709397 42.37363914 -1.69415009 46.00661878 -1.66674995 49.64021301 C-1.62402202 55.38963539 -1.62604554 61.13851837 -1.63450623 66.88806152 C-1.64500257 78.05498823 -1.612341 89.2215732 -1.57321167 100.3884201 C-1.52428016 114.60229091 -1.48827154 128.81599186 -1.50454658 143.02995348 C-1.50951103 148.74157204 -1.48959434 154.45239409 -1.45020878 160.16387177 C-1.43053564 163.72065197 -1.4314738 167.27721612 -1.43782043 170.83403587 C-1.43648737 172.47874672 -1.42659606 174.1234772 -1.40734673 175.76807594 C-1.22564812 192.0058229 -1.22564812 192.0058229 -7 198 C-9.41796875 200.00390625 -9.41796875 200.00390625 -12.1875 201.5625 C-13.31414062 202.2121875 -14.44078125 202.861875 -15.6015625 203.53125 C-16.26961914 203.90507812 -16.93767578 204.27890625 -17.62597656 204.6640625 C-20.50220146 206.28260453 -23.35622852 207.93755684 -26.2109375 209.59375 C-31.73008502 212.79350238 -37.25915242 215.9754735 -42.79345703 219.14892578 C-47.05993355 221.6118788 -51.30028919 224.11857569 -55.53686523 226.63256836 C-60.63548771 229.46311494 -65.29685384 229.8859979 -71 229 C-78.9713882 225.93629779 -86.28179163 221.34057011 -93.54956055 216.90063477 C-99.96497345 212.98176866 -106.48147914 209.24413974 -113 205.5 C-128.99427129 196.28802269 -128.99427129 196.28802269 -134.875 192.8125 C-135.98617187 192.15894531 -137.09734375 191.50539063 -138.2421875 190.83203125 C-140.90226592 189.06492533 -142.9988216 187.4893886 -145 185 C-145 181 -145 181 -143 179 C-142.01 179 -141.02 179 -140 179 C-139.67 179.33 -139.34 179.66 -139 180 C-138.505 179.01 -138.505 179.01 -138 178 C-137.05447266 178.82177734 -137.05447266 178.82177734 -136.08984375 179.66015625 C-132.12059507 182.66594634 -127.90362258 185.01261355 -123.5625 187.4375 C-115.99235407 191.71190804 -108.47361304 196.05903148 -101 200.5 C-99.17595477 201.5758151 -97.35173551 202.65133517 -95.52734375 203.7265625 C-91.73214964 205.96570675 -87.95833745 208.23711691 -84.19140625 210.5234375 C-82.31550388 211.64129604 -80.43921527 212.75850673 -78.5625 213.875 C-77.70462891 214.40544922 -76.84675781 214.93589844 -75.96289062 215.48242188 C-72.26919865 217.65638991 -69.82118484 218.9698564 -65.48828125 219.12890625 C-60.85184411 217.62842435 -56.83845401 215.48873839 -52.625 213.0625 C-51.75375488 212.57177002 -50.88250977 212.08104004 -49.98486328 211.57543945 C-47.31465518 210.06474679 -44.65553626 208.5363181 -42 207 C-41.20013672 206.53754883 -40.40027344 206.07509766 -39.57617188 205.59863281 C-35.30208947 203.11836437 -31.04864456 200.60547334 -26.80664062 198.07080078 C-25.1563556 197.09267239 -23.49286005 196.13692109 -21.828125 195.18359375 C-20.49007812 194.41208984 -20.49007812 194.41208984 -19.125 193.625 C-18.38507813 193.20476562 -17.64515625 192.78453125 -16.8828125 192.3515625 C-14.60763455 190.71834347 -13.44327781 189.4197254 -12 187 C-11.55714299 183.71076075 -11.55714299 183.71076075 -11.64164734 179.96710205 C-11.63802719 178.90463513 -11.63802719 178.90463513 -11.63433391 177.82070422 C-11.6297309 175.44697374 -11.64640616 173.07386633 -11.6628418 170.70019531 C-11.66364812 168.99832163 -11.6630541 167.2964468 -11.66116333 165.59457397 C-11.65960151 161.92882266 -11.66699563 158.26323572 -11.68100548 154.59751129 C-11.70212939 148.79808119 -11.69738048 142.99885228 -11.6879425 137.19940186 C-11.66506209 120.70775389 -11.67696619 104.21622529 -11.71508789 87.72460938 C-11.73591215 78.61690845 -11.73520571 69.5094572 -11.71155292 60.40176082 C-11.69788678 54.63995553 -11.71102978 48.8790344 -11.74415052 43.11731768 C-11.75852159 39.5265841 -11.7478301 35.93624453 -11.73016739 32.34553909 C-11.72699732 30.68472363 -11.73403668 29.02385128 -11.75223351 27.36313248 C-11.90876963 12.17368855 -11.90876963 12.17368855 -6.38465595 6.35407639 C-5.92771949 5.90723118 -5.47078302 5.46038597 -5 5 C-4.67 4.34 -4.34 3.68 -4 3 C-3.01 2.67 -2.02 2.34 -1 2 C-0.67 1.34 -0.34 0.68 0 0 Z " fill="#373C40" transform="translate(279,209)"/>
<path d="M0 0 C3 0.25 3 0.25 5 2.25 C5.22705078 4.68017578 5.22705078 4.68017578 5.1953125 7.6953125 C5.18886719 8.77167969 5.18242187 9.84804687 5.17578125 10.95703125 C5.15902344 12.08496094 5.14226562 13.21289062 5.125 14.375 C5.11597656 15.51066406 5.10695312 16.64632812 5.09765625 17.81640625 C5.07403098 20.62781299 5.04109013 23.43880298 5 26.25 C5.59748047 26.30260986 6.19496094 26.35521973 6.81054688 26.40942383 C20.13287387 27.71005247 30.3752083 34.61234772 39.046875 44.6484375 C42.36896351 49.07345939 45 53.63649105 45 59.25 C44.34 59.25 43.68 59.25 43 59.25 C42.01 62.55 41.02 65.85 40 69.25 C39.34 69.25 38.68 69.25 38 69.25 C37.86722656 68.57453125 37.73445313 67.8990625 37.59765625 67.203125 C37.33275391 65.86507812 37.33275391 65.86507812 37.0625 64.5 C36.80146484 63.17742187 36.80146484 63.17742187 36.53515625 61.828125 C36.07631512 59.61764947 35.56663926 57.43487932 35 55.25 C34.34 55.25 33.68 55.25 33 55.25 C31.97420517 53.56925162 31.00522378 51.85371109 30.0625 50.125 C26.17386078 43.79067574 21.7320133 41.09968705 15 38.25 C14.25234375 37.87746094 13.5046875 37.50492188 12.734375 37.12109375 C8.7792461 35.86110269 5.00376207 35.86810724 0.875 35.875 C0.03203369 35.87443604 -0.81093262 35.87387207 -1.67944336 35.87329102 C-8.37319114 35.99088301 -13.9790582 37.22128382 -20 40.25 C-20.99 40.745 -20.99 40.745 -22 41.25 C-22.33 42.24 -22.66 43.23 -23 44.25 C-24.485 44.745 -24.485 44.745 -26 45.25 C-26.33 45.91 -26.66 46.57 -27 47.25 C-27.33 47.91 -27.66 48.57 -28 49.25 C-29.485 49.745 -29.485 49.745 -31 50.25 C-31.71247732 51.8976038 -32.37400383 53.56763529 -33 55.25 C-33.49113281 55.85714844 -33.98226562 56.46429688 -34.48828125 57.08984375 C-36.23972875 59.59255814 -36.67521331 61.5050932 -37.1875 64.5 C-37.455625 66.0675 -37.72375 67.635 -38 69.25 C-31.4 69.25 -24.8 69.25 -18 69.25 C-17.67 67.6 -17.34 65.95 -17 64.25 C-14.83637538 61.32910676 -12.3168158 60.54436714 -9 59.25 C-8.4225 58.71375 -7.845 58.1775 -7.25 57.625 C-3.70939973 55.46129983 -0.04741646 56.0164952 4 56.25 C4.495 59.22 4.495 59.22 5 62.25 C4.31292969 62.43175781 3.62585938 62.61351562 2.91796875 62.80078125 C2.01691406 63.05214844 1.11585938 63.30351562 0.1875 63.5625 C-0.70582031 63.80613281 -1.59914062 64.04976562 -2.51953125 64.30078125 C-5.14299058 65.30471923 -6.33851761 66.00699877 -8 68.25 C-8.78356902 70.51393971 -8.78356902 70.51393971 -9.1875 72.9375 C-9.42533203 74.14986328 -9.42533203 74.14986328 -9.66796875 75.38671875 C-9.77753906 76.00160156 -9.88710937 76.61648437 -10 77.25 C-11.299375 77.064375 -12.59875 76.87875 -13.9375 76.6875 C-16.08575543 76.3518371 -16.08575543 76.3518371 -18 76.25 C-18.33 76.58 -18.66 76.91 -19 77.25 C-20.41570123 77.33651611 -21.835595 77.35704904 -23.25390625 77.34765625 C-24.10791016 77.34443359 -24.96191406 77.34121094 -25.84179688 77.33789062 C-26.73962891 77.32951172 -27.63746094 77.32113281 -28.5625 77.3125 C-29.46419922 77.30798828 -30.36589844 77.30347656 -31.29492188 77.29882812 C-33.53001314 77.28700225 -35.76497437 77.2705222 -38 77.25 C-37.84402344 77.98605469 -37.68804687 78.72210938 -37.52734375 79.48046875 C-37.33269531 80.45628906 -37.13804687 81.43210937 -36.9375 82.4375 C-36.74027344 83.40042969 -36.54304687 84.36335938 -36.33984375 85.35546875 C-35.99576053 88.28610862 -36.25835303 90.41307068 -37 93.25 C-36.34 93.25 -35.68 93.25 -35 93.25 C-35.144375 93.806875 -35.28875 94.36375 -35.4375 94.9375 C-36.02769128 97.36384195 -36.523429 99.79906345 -37 102.25 C-43.85221594 96.96400484 -46.75466626 87.60029043 -48 79.25 C-48.81808943 64.39121292 -45.64167039 52.51055546 -35.8125 40.9375 C-28.00566755 32.80429495 -18.91158175 27.96105658 -8 25.25 C-7.01 25.25 -6.02 25.25 -5 25.25 C-5.01571045 24.22060303 -5.01571045 24.22060303 -5.03173828 23.17041016 C-5.07321874 20.07197711 -5.09930069 16.97360239 -5.125 13.875 C-5.14175781 12.79476562 -5.15851563 11.71453125 -5.17578125 10.6015625 C-5.18544922 9.0546875 -5.18544922 9.0546875 -5.1953125 7.4765625 C-5.21102295 6.04691162 -5.21102295 6.04691162 -5.22705078 4.58837891 C-4.86304802 0.83954192 -3.64004591 0.30333716 0 0 Z " fill="#363C42" transform="translate(213,98.75)"/>
<path d="M0 0 C0.80695313 0.52980469 1.61390625 1.05960938 2.4453125 1.60546875 C3.30769531 2.07210937 4.17007813 2.53875 5.05859375 3.01953125 C7.73486175 4.79786973 9.03849006 6.47125371 10.7578125 9.16796875 C11.26957031 9.95300781 11.78132813 10.73804688 12.30859375 11.546875 C13.4453125 13.60546875 13.4453125 13.60546875 13.4453125 15.60546875 C14.1053125 15.60546875 14.7653125 15.60546875 15.4453125 15.60546875 C18.66064158 20.96435055 18.4453125 22.69354548 18.4453125 29.60546875 C11.8453125 29.60546875 5.2453125 29.60546875 -1.5546875 29.60546875 C-2.5446875 27.29546875 -3.5346875 24.98546875 -4.5546875 22.60546875 C-7.07041602 19.6835549 -9.87735976 17.83124466 -13.5546875 16.60546875 C-15.69881973 16.51042247 -17.8459552 16.47559649 -19.9921875 16.48046875 C-21.12527344 16.47789062 -22.25835937 16.4753125 -23.42578125 16.47265625 C-26.00689933 16.58221682 -28.10413155 16.84681998 -30.5546875 17.60546875 C-30.5546875 18.26546875 -30.5546875 18.92546875 -30.5546875 19.60546875 C-31.5446875 19.93546875 -32.5346875 20.26546875 -33.5546875 20.60546875 C-35.5346875 25.06046875 -35.5346875 25.06046875 -37.5546875 29.60546875 C-44.1546875 29.60546875 -50.7546875 29.60546875 -57.5546875 29.60546875 C-57.00650763 19.32709616 -57.00650763 19.32709616 -52.5546875 14.60546875 C-52.2040625 13.69796875 -51.8534375 12.79046875 -51.4921875 11.85546875 C-51.1828125 11.11296875 -50.8734375 10.37046875 -50.5546875 9.60546875 C-49.5646875 9.27546875 -48.5746875 8.94546875 -47.5546875 8.60546875 C-46.34586654 6.60530409 -46.34586654 6.60530409 -45.5546875 4.60546875 C-44.5646875 4.60546875 -43.5746875 4.60546875 -42.5546875 4.60546875 C-42.47863281 3.99058594 -42.40257812 3.37570313 -42.32421875 2.7421875 C-41.5546875 0.60546875 -41.5546875 0.60546875 -39.62890625 -0.625 C-38.84128906 -0.94082031 -38.05367187 -1.25664062 -37.2421875 -1.58203125 C-36.46230469 -1.90558594 -35.68242187 -2.22914063 -34.87890625 -2.5625 C-23.63828589 -6.58645317 -10.26202875 -6.05848636 0 0 Z " fill="#0385F8" transform="translate(232.5546875,138.39453125)"/>
<path d="M0 0 C0.99531738 0.64702881 0.99531738 0.64702881 2.01074219 1.30712891 C8.63394586 5.57286208 15.36654905 9.54662962 22.25 13.375 C28.75946245 17.02336053 35.24707185 20.68825938 41.625 24.5625 C42.78361363 25.25951457 43.94247397 25.95611919 45.1015625 26.65234375 C47.25854846 27.94802924 49.41055044 29.25089193 51.55761719 30.56298828 C54.36089468 32.26909548 57.17898235 33.9484218 60 35.625 C60.88510254 36.17099854 61.77020508 36.71699707 62.68212891 37.27954102 C66.48190363 39.51323631 69.08673617 40.96270335 73.5390625 41.14453125 C78.1523925 39.61890406 82.17296296 37.48216414 86.375 35.0625 C87.24624512 34.57177002 88.11749023 34.08104004 89.01513672 33.57543945 C91.68534482 32.06474679 94.34446374 30.5363181 97 29 C97.79986328 28.53754883 98.59972656 28.07509766 99.42382812 27.59863281 C103.69791053 25.11836437 107.95135544 22.60547334 112.19335938 20.07080078 C113.8436444 19.09267239 115.50713995 18.13692109 117.171875 17.18359375 C118.50992188 16.41208984 118.50992188 16.41208984 119.875 15.625 C120.61492187 15.20476562 121.35484375 14.78453125 122.1171875 14.3515625 C124.24874017 12.82144378 125.53649647 11.16303981 127 9 C127.99 9.495 127.99 9.495 129 10 C127.68 11.65 126.36 13.3 125 15 C125.99 14.34 126.98 13.68 128 13 C128.99 13.33 129.98 13.66 131 14 C130.01 14.33 129.02 14.66 128 15 C128.99 17.97 128.99 17.97 130 21 C123.53043319 25.46879337 116.87071217 29.43293768 110 33.25 C101.98321897 37.73598048 94.01664667 42.28734225 86.140625 47.01660156 C79.95077701 50.70742322 75.15861402 52.11210844 68 51 C60.0286118 47.93629779 52.71820837 43.34057011 45.45043945 38.90063477 C39.03502655 34.98176866 32.51852086 31.24413974 26 27.5 C10.00572871 18.28802269 10.00572871 18.28802269 4.125 14.8125 C3.01382813 14.15894531 1.90265625 13.50539063 0.7578125 12.83203125 C-1.90226592 11.06492533 -3.9988216 9.4893886 -6 7 C-6 3 -6 3 -4 1 C-3.01 1 -2.02 1 -1 1 C-0.67 1.33 -0.34 1.66 0 2 C0 1.34 0 0.68 0 0 Z " fill="#404448" transform="translate(140,387)"/>
<path d="M0 0 C3.22793797 -0.23329086 6.45371232 -0.37467674 9.6875 -0.5 C10.59951172 -0.56703125 11.51152344 -0.6340625 12.45117188 -0.703125 C15.17758703 -0.7824389 17.37301691 -0.74855349 20 0 C21.80951142 1.87340169 22.85102477 3.62974164 23.96972656 5.97460938 C25.77862136 9.53067364 28.32733763 11.53761262 32 13 C37.03740741 13.90895368 41.69186644 14.0624148 46.41015625 11.890625 C51.39207806 8.42655974 52.7590691 5.67162907 56 0 C62.6 0 69.2 0 76 0 C74.60474832 8.37151007 73.08977571 16.53209577 65.8828125 21.91015625 C53.20113639 29.2507945 38.22043792 30.32877013 24.1015625 27.3984375 C16.08577564 25.15401718 8.55951848 22.35039812 4 15 C1.16299617 9.81897989 -0.23206429 5.98210161 0 0 Z " fill="#D7E3E9" transform="translate(175,177)"/>
<path d="M0 0 C3.36644354 1.8588623 6.40247295 4.19277712 8.734375 7.2421875 C9.229375 10.2121875 9.229375 10.2121875 9.734375 13.2421875 C16.334375 13.2421875 22.934375 13.2421875 29.734375 13.2421875 C29.404375 15.8821875 29.074375 18.5221875 28.734375 21.2421875 C22.464375 21.2421875 16.194375 21.2421875 9.734375 21.2421875 C9.239375 23.7171875 9.239375 23.7171875 8.734375 26.2421875 C7.5 28.15625 7.5 28.15625 5.984375 29.8671875 C5.24960938 30.72183594 5.24960938 30.72183594 4.5 31.59375 C-0.45299656 36.21800785 -4.65089918 36.89321363 -11.25390625 36.72265625 C-16.7855718 35.84017264 -20.1562507 32.79500981 -23.640625 28.578125 C-26.265625 24.87760417 -26.265625 24.87760417 -26.265625 22.2421875 C-32.865625 22.2421875 -39.465625 22.2421875 -46.265625 22.2421875 C-46.265625 21.9121875 -46.265625 21.5821875 -46.265625 21.2421875 C-45.71100586 21.21713135 -45.15638672 21.1920752 -44.58496094 21.16625977 C-42.06163657 21.04990823 -39.53864964 20.92735996 -37.015625 20.8046875 C-35.70658203 20.74571289 -35.70658203 20.74571289 -34.37109375 20.68554688 C-33.52675781 20.64365234 -32.68242187 20.60175781 -31.8125 20.55859375 C-30.64992676 20.50360718 -30.64992676 20.50360718 -29.46386719 20.44750977 C-27.25710253 20.30541866 -27.25710253 20.30541866 -25.15332031 19.66381836 C-22.42704196 19.05488371 -20.72888155 20.07898302 -18.265625 21.2421875 C-18.23984375 20.63890625 -18.2140625 20.035625 -18.1875 19.4140625 C-17.73079762 12.97871082 -17.73079762 12.97871082 -15.765625 9.8671875 C-12.17986651 7.53644448 -8.3613299 6.39738632 -4.265625 5.2421875 C-4.265625 3.5921875 -4.265625 1.9421875 -4.265625 0.2421875 C-10.3139504 0.50573109 -13.61087784 1.11941144 -18.265625 5.2421875 C-19.585625 5.2421875 -20.905625 5.2421875 -22.265625 5.2421875 C-22.595625 6.2321875 -22.925625 7.2221875 -23.265625 8.2421875 C-23.595625 7.5821875 -23.925625 6.9221875 -24.265625 6.2421875 C-23.605625 5.2521875 -22.945625 4.2621875 -22.265625 3.2421875 C-21.275625 3.2421875 -20.285625 3.2421875 -19.265625 3.2421875 C-19.265625 2.5821875 -19.265625 1.9221875 -19.265625 1.2421875 C-13.79514596 -2.0853545 -5.98005626 -2.00022571 0 0 Z M-2.265625 12.2421875 C-3.89733623 13.65111897 -5.52076445 15.06964708 -7.140625 16.4921875 C-8.49800781 17.67554688 -8.49800781 17.67554688 -9.8828125 18.8828125 C-12.01002493 20.98910153 -13.17074806 22.49870276 -14.265625 25.2421875 C-11.03385743 26.85807129 -7.75947217 26.81670157 -4.265625 26.2421875 C-1.09895833 24.40885417 -1.09895833 24.40885417 0.734375 21.2421875 C1.13393624 18.43488063 0.97661738 16.10064756 0.734375 13.2421875 C-0.255625 12.9121875 -1.245625 12.5821875 -2.265625 12.2421875 Z " fill="#333A41" transform="translate(221.265625,154.7578125)"/>
<path d="M0 0 C7.85486036 -0.75482142 13.18307577 4.3435274 19 9 C28.44111369 17.15434628 28.44111369 17.15434628 29.23924255 24.07427979 C29.39367549 26.62287615 29.4862725 29.16638158 29.5546875 31.71875 C29.58354034 32.65424683 29.61239319 33.58974365 29.64212036 34.55358887 C29.69905327 36.5269611 29.75085262 38.50048728 29.79785156 40.47412109 C29.87475387 43.49034646 29.98358882 46.5043608 30.09375 49.51953125 C30.14519325 51.44005256 30.19473635 53.36062591 30.2421875 55.28125 C30.27843231 56.18033081 30.31467712 57.07941162 30.35202026 58.0057373 C30.42296314 62.32536995 30.39501236 64.39087506 27.98486328 68.10742188 C27.3298584 68.73197266 26.67485352 69.35652344 26 70 C22.70617293 67.30156219 20.37633689 64.29538813 19.67297363 60.00537109 C19.23319969 54.1762106 19.45471565 48.33679072 19.625 42.5 C19.65513056 40.7057738 19.68250093 38.911499 19.70703125 37.1171875 C19.77279936 32.74358236 19.87614695 28.3723301 20 24 C19.34 24 18.68 24 18 24 C17.21625 23.01 16.4325 22.02 15.625 21 C12.01057857 16.52929419 7.45880228 14.01092775 2.51171875 11.1875 C0 9 0 9 -0.91796875 5.375 C-1 2 -1 2 0 0 Z " fill="#3E4246" transform="translate(248,64)"/>
<path d="M0 0 C0.495 2.97 0.495 2.97 1 6 C0.31292969 6.18175781 -0.37414062 6.36351562 -1.08203125 6.55078125 C-1.98308594 6.80214844 -2.88414062 7.05351562 -3.8125 7.3125 C-4.70582031 7.55613281 -5.59914062 7.79976562 -6.51953125 8.05078125 C-9.14299058 9.05471923 -10.33851761 9.75699877 -12 12 C-12.78356902 14.26393971 -12.78356902 14.26393971 -13.1875 16.6875 C-13.42533203 17.89986328 -13.42533203 17.89986328 -13.66796875 19.13671875 C-13.77753906 19.75160156 -13.88710937 20.36648437 -14 21 C-15.299375 20.814375 -16.59875 20.62875 -17.9375 20.4375 C-20.08575543 20.1018371 -20.08575543 20.1018371 -22 20 C-22.33 20.33 -22.66 20.66 -23 21 C-24.41570123 21.08651611 -25.835595 21.10704904 -27.25390625 21.09765625 C-28.10791016 21.09443359 -28.96191406 21.09121094 -29.84179688 21.08789062 C-31.18854492 21.07532227 -31.18854492 21.07532227 -32.5625 21.0625 C-33.46419922 21.05798828 -34.36589844 21.05347656 -35.29492188 21.04882812 C-37.53001314 21.03700225 -39.76497437 21.0205222 -42 21 C-41.84402344 21.73605469 -41.68804687 22.47210938 -41.52734375 23.23046875 C-41.23537109 24.69419922 -41.23537109 24.69419922 -40.9375 26.1875 C-40.74027344 27.15042969 -40.54304687 28.11335938 -40.33984375 29.10546875 C-39.99576053 32.03610862 -40.25835303 34.16307068 -41 37 C-40.34 37 -39.68 37 -39 37 C-39.144375 37.556875 -39.28875 38.11375 -39.4375 38.6875 C-40.02769128 41.11384195 -40.523429 43.54906345 -41 46 C-47.85221594 40.71400484 -50.75466626 31.35029043 -52 23 C-52.40298622 15.68064571 -52.19903971 9.00943906 -50 2 C-46.83179542 2 -45.74405092 2.62797454 -43 4 C-43 7.3 -43 10.6 -43 14 C-35.74 13.67 -28.48 13.34 -21 13 C-20.34 11.02 -19.68 9.04 -19 7 C-17.60148274 4.20296548 -15.86309036 4.13191945 -13 3 C-12.4225 2.46375 -11.845 1.9275 -11.25 1.375 C-7.70939973 -0.78870017 -4.04741646 -0.2335048 0 0 Z " fill="#34393E" transform="translate(217,155)"/>
<path d="M0 0 C3 0.25 3 0.25 5 2.25 C5.22705078 4.68017578 5.22705078 4.68017578 5.1953125 7.6953125 C5.18886719 8.77167969 5.18242187 9.84804687 5.17578125 10.95703125 C5.15902344 12.08496094 5.14226562 13.21289062 5.125 14.375 C5.11597656 15.51066406 5.10695312 16.64632812 5.09765625 17.81640625 C5.07403098 20.62781299 5.04109013 23.43880298 5 26.25 C7.97 26.58 10.94 26.91 14 27.25 C13.505 27.86875 13.01 28.4875 12.5 29.125 C10.80777227 31.08880904 10.80777227 31.08880904 11 33.25 C11.99 33.745 11.99 33.745 13 34.25 C12.23856689 34.23952637 11.47713379 34.22905273 10.69262695 34.21826172 C7.2326184 34.17660981 3.77266269 34.1506444 0.3125 34.125 C-0.88568359 34.10824219 -2.08386719 34.09148437 -3.31835938 34.07421875 C-4.47529297 34.06777344 -5.63222656 34.06132812 -6.82421875 34.0546875 C-7.88729248 34.04421387 -8.95036621 34.03374023 -10.0456543 34.02294922 C-13.08126781 34.25624569 -15.25623267 34.96794865 -18 36.25 C-18 35.59 -18 34.93 -18 34.25 C-19.98 34.25 -21.96 34.25 -24 34.25 C-24 33.26 -24 32.27 -24 31.25 C-22.71531961 30.6107629 -21.42161893 29.98966018 -20.125 29.375 C-19.40570313 29.02695313 -18.68640625 28.67890625 -17.9453125 28.3203125 C-13.73042982 26.78864426 -9.40495326 26.04612753 -5 25.25 C-5.01047363 24.56373535 -5.02094727 23.8774707 -5.03173828 23.17041016 C-5.07321874 20.07197711 -5.09930069 16.97360239 -5.125 13.875 C-5.14175781 12.79476562 -5.15851563 11.71453125 -5.17578125 10.6015625 C-5.18222656 9.5703125 -5.18867188 8.5390625 -5.1953125 7.4765625 C-5.20578613 6.52346191 -5.21625977 5.57036133 -5.22705078 4.58837891 C-4.86304802 0.83954192 -3.64004591 0.30333716 0 0 Z " fill="#3C4348" transform="translate(213,98.75)"/>
<path d="M0 0 C2.5625 2 2.5625 2 4 4 C3.49210937 4.35191406 2.98421875 4.70382813 2.4609375 5.06640625 C-2.42205707 8.56862895 -6.30303954 12.26677032 -10 17 C-3.09711391 17.57401153 -3.09711391 17.57401153 3.125 15 C3.74375 14.34 4.3625 13.68 5 13 C5.495 14.485 5.495 14.485 6 16 C5.505 16.639375 5.01 17.27875 4.5 17.9375 C2.73183422 19.86092643 2.73183422 19.86092643 3.3125 22.0625 C3.539375 22.701875 3.76625 23.34125 4 24 C4 24.99 4 25.98 4 27 C-0.24777134 29.12388567 -5.39938068 28.60534465 -10 28 C-15.49667643 25.44607799 -19.13913547 21.24491831 -22 16 C-22 15.34 -22 14.68 -22 14 C-28.6 14 -35.2 14 -42 14 C-42 13.67 -42 13.34 -42 13 C-41.44538086 12.97494385 -40.89076172 12.9498877 -40.31933594 12.92407227 C-37.79601157 12.80772073 -35.27302464 12.68517246 -32.75 12.5625 C-31.87730469 12.52318359 -31.00460938 12.48386719 -30.10546875 12.44335938 C-29.26113281 12.40146484 -28.41679687 12.35957031 -27.546875 12.31640625 C-26.77182617 12.27974854 -25.99677734 12.24309082 -25.19824219 12.20532227 C-22.99147753 12.06323116 -22.99147753 12.06323116 -20.88769531 11.42163086 C-18.16141696 10.81269621 -16.46325655 11.83679552 -14 13 C-13.97421875 12.39671875 -13.9484375 11.7934375 -13.921875 11.171875 C-13.65825461 7.45722405 -13.40082985 4.68475099 -11.5 1.4375 C-7.74235148 -0.7231479 -4.22814593 -0.80683886 0 0 Z " fill="#44474C" transform="translate(217,163)"/>
<path d="M0 0 C3.70390021 2.02666238 5.65363011 3.48044516 8 7 C8.48990241 12.19296559 7.95682924 15.66331712 5 20 C1.56846736 22.41767072 -0.35643909 23.01129054 -4.5625 22.9375 C-8.31727525 21.91347039 -10.2622111 20.7377889 -13 18 C-14.36736771 13.89789687 -14.8790549 10.27177094 -14 6 C-10.48298892 0.86537254 -6.18358255 -1.12428774 0 0 Z " fill="#363C41" transform="translate(171,296)"/>
<path d="M0 0 C3.12492251 -0.05791844 6.24970766 -0.09356746 9.375 -0.125 C10.26445312 -0.14175781 11.15390625 -0.15851563 12.0703125 -0.17578125 C12.92109375 -0.18222656 13.771875 -0.18867188 14.6484375 -0.1953125 C15.82672119 -0.21102295 15.82672119 -0.21102295 17.02880859 -0.22705078 C19 0 19 0 21 2 C21.25 4.5 21.25 4.5 21 7 C18.63431778 9.36568222 18.14767774 9.25571704 14.9375 9.265625 C13.74253906 9.26949219 13.74253906 9.26949219 12.5234375 9.2734375 C11.69070312 9.26570313 10.85796875 9.25796875 10 9.25 C9.16726562 9.25773437 8.33453125 9.26546875 7.4765625 9.2734375 C6.67992187 9.27085937 5.88328125 9.26828125 5.0625 9.265625 C4.33160156 9.26336914 3.60070312 9.26111328 2.84765625 9.25878906 C1 9 1 9 -1 7 C-0.625 3.375 -0.625 3.375 0 0 Z " fill="#383F44" transform="translate(158,337)"/>
<path d="M0 0 C0.88494141 -0.01224609 1.76988281 -0.02449219 2.68164062 -0.03710938 C3.52791016 -0.03904297 4.37417969 -0.04097656 5.24609375 -0.04296875 C6.02525146 -0.04707764 6.80440918 -0.05118652 7.60717773 -0.05541992 C9.5625 0.1875 9.5625 0.1875 11.5625 2.1875 C11.875 4.6875 11.875 4.6875 11.5625 7.1875 C7.83328729 9.67364181 4.87878318 9.51920055 0.5625 9.5 C-0.52417969 9.52416992 -0.52417969 9.52416992 -1.6328125 9.54882812 C-6.90140855 9.55368845 -6.90140855 9.55368845 -9.421875 7.83203125 C-10.83934765 5.53681592 -10.71552522 3.8287396 -10.4375 1.1875 C-8.1977852 -1.0522148 -3.00852512 0.00218167 0 0 Z " fill="#3A3F45" transform="translate(167.4375,357.8125)"/>
<path d="M0 0 C3.84158083 3.38197861 5.97258939 7.15906457 8.3125 11.625 C8.68439453 12.305625 9.05628906 12.98625 9.43945312 13.6875 C10.3608784 15.42396626 11.18860342 17.20947628 12 19 C11.67 19.66 11.34 20.32 11 21 C8.5625 21.75 8.5625 21.75 6 22 C5.34 21.34 4.68 20.68 4 20 C3.67 20.66 3.34 21.32 3 22 C3.99 22.33 4.98 22.66 6 23 C5.01 23.99 4.02 24.98 3 26 C1.76600037 23.80287871 0.56389743 21.59636099 -0.625 19.375 C-0.975625 18.75753906 -1.32625 18.14007813 -1.6875 17.50390625 C-3.43727851 14.17932709 -4.10352272 12.46810273 -3.28125 8.75 C-2.64703125 7.38875 -2.64703125 7.38875 -2 6 C-1.62875 4.88625 -1.2575 3.7725 -0.875 2.625 C-0.58625 1.75875 -0.2975 0.8925 0 0 Z " fill="#494B4F" transform="translate(278,124)"/>
<path d="M0 0 C3.47842253 0.05601325 4.34711316 0.15811271 7.1875 2.375 C7.661875 3.035 8.13625 3.695 8.625 4.375 C8.11710937 4.72691406 7.60921875 5.07882813 7.0859375 5.44140625 C2.20294293 8.94362895 -1.67803954 12.64177032 -5.375 17.375 C-7.8548191 15.16326945 -8.37113366 14.38991302 -9.25 11 C-9.38963514 6.95058087 -8.80952127 5.53086091 -6.375 2.375 C-3.98213116 -0.01786884 -3.28052906 0.05449384 0 0 Z " fill="#D5E0E5" transform="translate(212.375,162.625)"/>
<path d="M0 0 C0.33 0.99 0.66 1.98 1 3 C0.071875 3.3403125 0.071875 3.3403125 -0.875 3.6875 C-3.65367862 5.40374268 -3.91815865 6.97084422 -5 10 C-5.73476562 10.90878906 -5.73476562 10.90878906 -6.484375 11.8359375 C-8.23880116 14.34096867 -8.67463138 16.25169117 -9.1875 19.25 C-9.455625 20.8175 -9.72375 22.385 -10 24 C-3.4 24 3.2 24 10 24 C10.33 22.35 10.66 20.7 11 19 C11.33 19 11.66 19 12 19 C12.042721 20.66611905 12.04063832 22.33382885 12 24 C11 25 11 25 8.86694336 25.11352539 C7.95050049 25.10828857 7.03405762 25.10305176 6.08984375 25.09765625 C5.10048828 25.09443359 4.11113281 25.09121094 3.09179688 25.08789062 C2.05087891 25.07951172 1.00996094 25.07113281 -0.0625 25.0625 C-1.10728516 25.05798828 -2.15207031 25.05347656 -3.22851562 25.04882812 C-5.8190666 25.03699913 -8.40950559 25.02051689 -11 25 C-11.03738281 24.38511719 -11.07476562 23.77023438 -11.11328125 23.13671875 C-11.17902344 22.32847656 -11.24476563 21.52023438 -11.3125 20.6875 C-11.37050781 19.88699219 -11.42851562 19.08648437 -11.48828125 18.26171875 C-12.08206694 15.63727666 -12.95780294 14.69179328 -15 13 C-14.25 11.0625 -14.25 11.0625 -13 9 C-10.875 8.25 -10.875 8.25 -9 8 C-9 7.34 -9 6.68 -9 6 C-7.68 6.33 -6.36 6.66 -5 7 C-5 5.35 -5 3.7 -5 2 C-3.35 1.34 -1.7 0.68 0 0 Z M-17 12 C-16.01 12.495 -16.01 12.495 -15 13 C-15.33 13.66 -15.66 14.32 -16 15 C-16.33 14.01 -16.66 13.02 -17 12 Z " fill="#283A4D" transform="translate(185,144)"/>
<path d="M0 0 C-0.495 0.763125 -0.99 1.52625 -1.5 2.3125 C-3.24368308 4.92363751 -3.24368308 4.92363751 -3 8 C-2.01 8.33 -1.02 8.66 0 9 C0.6875 11.0625 0.6875 11.0625 1 13 C0.01 13 -0.98 13 -2 13 C-2 14.65 -2 16.3 -2 18 C-2.99 18.33 -3.98 18.66 -5 19 C-7.72553988 16.51146358 -8.81650461 14.63340978 -9.23828125 10.87890625 C-9.43740322 4.66420488 -9.43740322 4.66420488 -7.3125 1.4375 C-4.62515045 -0.23301458 -3.10843835 -0.34538204 0 0 Z " fill="#353C41" transform="translate(166,298)"/>
<path d="M0 0 C2.51794744 1.40293122 4.32084796 2.55575841 5.62890625 5.171875 C3.97890625 5.171875 2.32890625 5.171875 0.62890625 5.171875 C1.28890625 6.491875 1.94890625 7.811875 2.62890625 9.171875 C1.96890625 9.171875 1.30890625 9.171875 0.62890625 9.171875 C0.29890625 10.491875 -0.03109375 11.811875 -0.37109375 13.171875 C-0.92796875 12.5325 -1.48484375 11.893125 -2.05859375 11.234375 C-4.59175936 8.97506513 -6.05450799 8.54038453 -9.37109375 8.171875 C-8.73171875 7.8625 -8.09234375 7.553125 -7.43359375 7.234375 C-5.43498554 6.3373587 -5.43498554 6.3373587 -4.37109375 5.171875 C-4.33045543 3.50570385 -4.32837275 1.83799405 -4.37109375 0.171875 C-10.41941915 0.43541859 -13.71634659 1.04909894 -18.37109375 5.171875 C-19.69109375 5.171875 -21.01109375 5.171875 -22.37109375 5.171875 C-22.70109375 6.161875 -23.03109375 7.151875 -23.37109375 8.171875 C-23.70109375 7.511875 -24.03109375 6.851875 -24.37109375 6.171875 C-23.71109375 5.181875 -23.05109375 4.191875 -22.37109375 3.171875 C-21.38109375 3.171875 -20.39109375 3.171875 -19.37109375 3.171875 C-19.37109375 2.511875 -19.37109375 1.851875 -19.37109375 1.171875 C-13.87023203 -2.17414794 -5.98531727 -2.09042382 0 0 Z " fill="#33404C" transform="translate(221.37109375,154.828125)"/>
<path d="M0 0 C3.4375 1.9375 3.4375 1.9375 6 4 C6 4.33 6 4.66 6 5 C3.69 5.66 1.38 6.32 -1 7 C-1 8.98 -1 10.96 -1 13 C-5 13 -5 13 -6.6875 11.75 C-8.16353221 9.78195705 -8.76306451 8.4483334 -9 6 C-8.34 5.34 -7.68 4.68 -7 4 C-7.66 3.01 -8.32 2.02 -9 1 C-5.89046621 -0.5547669 -3.43733239 -0.28644437 0 0 Z " fill="#4E565C" transform="translate(171,296)"/>
<path d="M0 0 C6.00010901 0.20000363 9.28354104 1.34474431 14 5 C13.67 5.99 13.34 6.98 13 8 C12.34 8 11.68 8 11 8 C10.67 8.66 10.34 9.32 10 10 C6.7 9.34 3.4 8.68 0 8 C-0.66 6.02 -1.32 4.04 -2 2 C-1.34 1.34 -0.68 0.68 0 0 Z " fill="#33383F" transform="translate(225,127)"/>
<path d="M0 0 C0.99 0 1.98 0 3 0 C3.33 0.66 3.66 1.32 4 2 C3.67 2.66 3.34 3.32 3 4 C2.34 4 1.68 4 1 4 C0.67 5.65 0.34 7.3 0 9 C-0.66 9 -1.32 9 -2 9 C-2 8.34 -2 7.68 -2 7 C-2.99 7 -3.98 7 -5 7 C-5.33 7.99 -5.66 8.98 -6 10 C-8.31 9.34 -10.62 8.68 -13 8 C-12.7734375 6.17578125 -12.7734375 6.17578125 -12 4 C-10.0390625 2.48046875 -10.0390625 2.48046875 -7.625 1.1875 C-6.83351562 0.74792969 -6.04203125 0.30835938 -5.2265625 -0.14453125 C-3 -1 -3 -1 0 0 Z " fill="#373B40" transform="translate(233,421)"/>
<path d="M0 0 C1.67180274 0.94934513 3.33733936 1.90973313 5 2.875 C6.3921875 3.67550781 6.3921875 3.67550781 7.8125 4.4921875 C8.8953125 5.23855469 8.8953125 5.23855469 10 6 C10 6.66 10 7.32 10 8 C9.34 8 8.68 8 8 8 C7.34 9.65 6.68 11.3 6 13 C5.34 11.68 4.68 10.36 4 9 C2.35 9.66 0.7 10.32 -1 11 C-1.99 10.01 -2.98 9.02 -4 8 C-3.34 7.4225 -2.68 6.845 -2 6.25 C0.44290923 4.00346023 0.44290923 4.00346023 0 0 Z " fill="#3E4247" transform="translate(199,422)"/>
<path d="M0 0 C1.15941038 3.47823115 0.70820884 5.45895578 0 9 C0.66 9 1.32 9 2 9 C1.67 9.66 1.34 10.32 1 11 C0.34 10.67 -0.32 10.34 -1 10 C-1 10.66 -1 11.32 -1 12 C-1.598125 12.268125 -2.19625 12.53625 -2.8125 12.8125 C-4.97224808 13.98493467 -6.35790256 15.19369282 -8 17 C-9 14 -9 14 -8.14453125 11.9140625 C-5.68224362 7.68268259 -3.2301498 3.70869051 0 0 Z " fill="#3C4348" transform="translate(177,140)"/>
<path d="M0 0 C1.8125 0.375 1.8125 0.375 4 1 C4.7425 1.185625 5.485 1.37125 6.25 1.5625 C6.8275 1.706875 7.405 1.85125 8 2 C8.33 1.34 8.66 0.68 9 0 C9.66 1.65 10.32 3.3 11 5 C9.88625 5.103125 8.7725 5.20625 7.625 5.3125 C6.42875 5.539375 5.2325 5.76625 4 6 C3.01 7.485 3.01 7.485 2 9 C1.34 7.02 0.68 5.04 0 3 C-6.6 3 -13.2 3 -20 3 C-20 2.67 -20 2.34 -20 2 C-19.42967041 1.97494385 -18.85934082 1.9498877 -18.27172852 1.92407227 C-15.70173843 1.80843451 -13.13214473 1.68556376 -10.5625 1.5625 C-9.66466797 1.52318359 -8.76683594 1.48386719 -7.84179688 1.44335938 C-6.98779297 1.40146484 -6.13378906 1.35957031 -5.25390625 1.31640625 C-4.46314697 1.27974854 -3.6723877 1.24309082 -2.85766602 1.20532227 C-0.98598559 1.19436743 -0.98598559 1.19436743 0 0 Z " fill="#484E52" transform="translate(195,174)"/>
<path d="M0 0 C-0.64669414 1.34313399 -1.31903578 2.67391178 -2 4 C-2.4125 4.86625 -2.825 5.7325 -3.25 6.625 C-5.5029312 9.68254948 -7.33802967 10.22085738 -11 11 C-11.66 10.67 -12.32 10.34 -13 10 C-13 8.68 -13 7.36 -13 6 C-10.91796875 4.296875 -10.91796875 4.296875 -8.1875 2.75 C-7.29417969 2.22921875 -6.40085938 1.7084375 -5.48046875 1.171875 C-3 0 -3 0 0 0 Z " fill="#393F45" transform="translate(260,404)"/>
<path d="M0 0 C1.36948916 3.95630201 0.77791742 5.33249547 0 10 C5.61 10 11.22 10 17 10 C17.33 8.68 17.66 7.36 18 6 C18.66 6.33 19.32 6.66 20 7 C19.34 8.65 18.68 10.3 18 12 C11.4 12 4.8 12 -2 12 C-1.125 2.25 -1.125 2.25 0 0 Z " fill="#1672C6" transform="translate(177,156)"/>
<path d="M0 0 C3 1 3 1 4.5 2.5625 C6.01472806 4.34595268 6.01472806 4.34595268 9 4 C9 3.34 9 2.68 9 2 C9.99 2.33 10.98 2.66 12 3 C12 3.99 12 4.98 12 6 C11.34 6 10.68 6 10 6 C9.01 9.3 8.02 12.6 7 16 C6.34 16 5.68 16 5 16 C4.86722656 15.32453125 4.73445312 14.6490625 4.59765625 13.953125 C4.42105469 13.06109375 4.24445313 12.1690625 4.0625 11.25 C3.88847656 10.36828125 3.71445313 9.4865625 3.53515625 8.578125 C3.07631512 6.36764947 2.56663926 4.18487932 2 2 C1.34 2 0.68 2 0 2 C0 1.34 0 0.68 0 0 Z " fill="#2A3C4B" transform="translate(246,152)"/>
<path d="M0 0 C0.78181641 -0.00773438 1.56363281 -0.01546875 2.36914062 -0.0234375 C8.58646588 -0.00266114 13.89884153 0.72422769 19.1875 4.25 C18.23810547 4.00830078 18.23810547 4.00830078 17.26953125 3.76171875 C13.12296143 3.07325152 9.07118729 3.06576552 4.875 3.0625 C4.05837891 3.05025391 3.24175781 3.03800781 2.40039062 3.02539062 C-3.00681365 3.01246504 -7.61877644 3.73790327 -12.8125 5.25 C-12.8125 4.26 -12.8125 3.27 -12.8125 2.25 C-8.82724572 -0.45696517 -4.62498538 -0.04508515 0 0 Z " fill="#204467" transform="translate(208.8125,131.75)"/>
<path d="M0 0 C0.66 0.33 1.32 0.66 2 1 C1.38253906 1.47308594 0.76507813 1.94617188 0.12890625 2.43359375 C-10.42966168 10.4925692 -10.42966168 10.4925692 -18.62890625 20.76953125 C-19.08136719 21.50558594 -19.53382813 22.24164063 -20 23 C-20.66 23 -21.32 23 -22 23 C-19.12698345 12.78483005 -8.37475745 5.58317163 0 0 Z " fill="#E7F4F6" transform="translate(171,95)"/>
<path d="M0 0 C4.18551474 5.45936705 4 6.05299449 4 14 C-2.6 14 -9.2 14 -16 14 C-16.33 12.68 -16.66 11.36 -17 10 C-16.34 10 -15.68 10 -15 10 C-14.67 10.66 -14.34 11.32 -14 12 C-8.72 12 -3.44 12 2 12 C1.41804665 7.92632656 0.84893516 4.0021229 0 0 Z " fill="#166DBB" transform="translate(247,154)"/>
<path d="M0 0 C2.96175123 0.61277612 4.38058783 1.25372522 7 3 C7.6875 5.125 7.6875 5.125 8 7 C2.56559513 8.32841008 2.56559513 8.32841008 0.0625 6.875 C-1 5 -1 5 -0.6875 2.3125 C-0.460625 1.549375 -0.23375 0.78625 0 0 Z " fill="#34373C" transform="translate(199,179)"/>
<path d="M0 0 C1.65 1.32 3.3 2.64 5 4 C4.1875 5.9375 4.1875 5.9375 3 8 C2.01 8.33 1.02 8.66 0 9 C0 10.65 0 12.3 0 14 C-3.47917182 11.68055212 -4.29429766 9.73630036 -6 6 C-2.535 5.505 -2.535 5.505 1 5 C0.67 3.35 0.34 1.7 0 0 Z " fill="#2E465B" transform="translate(246,138)"/>
<path d="M0 0 C0.99 0.66 1.98 1.32 3 2 C3.4375 4.3125 3.4375 4.3125 3 7 C1 9.8125 1 9.8125 -1 12 C-2.20628008 9.66785852 -3.1654738 7.50357861 -4 5 C-3.525625 4.54625 -3.05125 4.0925 -2.5625 3.625 C-0.90972192 2.06741796 -0.90972192 2.06741796 0 0 Z " fill="#34383C" transform="translate(275,122)"/>
<path d="M0 0 C1.17046875 0.01804688 2.3409375 0.03609375 3.546875 0.0546875 C4.88492188 0.08949219 4.88492188 0.08949219 6.25 0.125 C6.25 0.455 6.25 0.785 6.25 1.125 C5.51394531 1.15078125 4.77789062 1.1765625 4.01953125 1.203125 C-1.93393064 1.54916506 -5.26790616 1.91454821 -9.75 6.125 C-11.07 6.125 -12.39 6.125 -13.75 6.125 C-14.08 7.115 -14.41 8.105 -14.75 9.125 C-15.08 8.465 -15.41 7.805 -15.75 7.125 C-15.09 6.135 -14.43 5.145 -13.75 4.125 C-12.76 4.125 -11.77 4.125 -10.75 4.125 C-10.75 3.465 -10.75 2.805 -10.75 2.125 C-7.15537669 -0.13498595 -4.18404325 -0.08368087 0 0 Z " fill="#1D466C" transform="translate(212.75,153.875)"/>
<path d="M0 0 C6.52307692 0.61538462 6.52307692 0.61538462 8.9375 2.5625 C9.288125 3.036875 9.63875 3.51125 10 4 C9.34 4.66 8.68 5.32 8 6 C3.545 4.02 3.545 4.02 -1 2 C-0.67 1.34 -0.34 0.68 0 0 Z " fill="#353940" transform="translate(144,393)"/>
<path d="M0 0 C0.83265381 0.04713135 1.66530762 0.0942627 2.52319336 0.14282227 C3.871875 0.21533203 3.871875 0.21533203 5.24780273 0.28930664 C6.19333008 0.34538086 7.13885742 0.40145508 8.11303711 0.45922852 C9.53712891 0.53753906 9.53712891 0.53753906 10.98999023 0.61743164 C13.34380663 0.74754209 15.6972441 0.88251963 18.05053711 1.02172852 C18.05053711 1.35172852 18.05053711 1.68172852 18.05053711 2.02172852 C12.11053711 2.35172852 6.17053711 2.68172852 0.05053711 3.02172852 C-0.32214089 7.64905052 -0.32214089 7.64905052 1.05053711 10.02172852 C0.06053711 9.69172852 -0.92946289 9.36172852 -1.94946289 9.02172852 C-2.82836914 2.86938477 -2.82836914 2.86938477 -2.94946289 1.02172852 C-1.94946289 0.02172852 -1.94946289 0.02172852 0 0 Z " fill="#A6B7BC" transform="translate(157.949462890625,355.978271484375)"/>
<path d="M0 0 C0.99 1.32 1.98 2.64 3 4 C1.8125 5.5625 1.8125 5.5625 0 7 C-2.6875 6.6875 -2.6875 6.6875 -5 6 C-5.33 4.68 -5.66 3.36 -6 2 C-4.02 1.34 -2.04 0.68 0 0 Z " fill="#31353C" transform="translate(245,138)"/>
<path d="M0 0 C-0.33 1.32 -0.66 2.64 -1 4 C0.98 3.67 2.96 3.34 5 3 C2 5 2 5 0 6 C-0.33 6.99 -0.66 7.98 -1 9 C-3.0625 9.6875 -3.0625 9.6875 -5 10 C-5 9.34 -5 8.68 -5 8 C-4.34 8 -3.68 8 -3 8 C-3 6.68 -3 5.36 -3 4 C-3.66 4 -4.32 4 -5 4 C-4.67 3.01 -4.34 2.02 -4 1 C-2 0 -2 0 0 0 Z " fill="#254058" transform="translate(191,134)"/>
<path d="M0 0 C0.66 0 1.32 0 2 0 C2 0.66 2 1.32 2 2 C1.01 2.33 0.02 2.66 -1 3 C-0.67 2.01 -0.34 1.02 0 0 Z M-8 2 C-5.69 2.33 -3.38 2.66 -1 3 C-1 3.66 -1 4.32 -1 5 C0.32 5 1.64 5 3 5 C3.33 6.32 3.66 7.64 4 9 C-0.66714289 7.16974789 -4.18765077 5.3502463 -8 2 Z " fill="#22415A" transform="translate(236,134)"/>
<path d="M0 0 C2.97 0 5.94 0 9 0 C8.01 0.495 8.01 0.495 7 1 C7.33 2.32 7.66 3.64 8 5 C6.02 5.33 4.04 5.66 2 6 C2.33 4.68 2.66 3.36 3 2 C2.01 2.33 1.02 2.66 0 3 C0 2.01 0 1.02 0 0 Z " fill="#34353C" transform="translate(188,132)"/>
<path d="M0 0 C0.309375 0.639375 0.61875 1.27875 0.9375 1.9375 C1.8345163 3.93610821 1.8345163 3.93610821 3 5 C5.85877909 5.23701239 8.69883297 5.42219182 11.5625 5.5625 C12.36880859 5.60568359 13.17511719 5.64886719 14.00585938 5.69335938 C16.00368805 5.79975262 18.0018207 5.90040888 20 6 C20 6.33 20 6.66 20 7 C16.89601022 7.08710289 13.79233452 7.14042309 10.6875 7.1875 C9.80642578 7.21263672 8.92535156 7.23777344 8.01757812 7.26367188 C6.74624023 7.27817383 6.74624023 7.27817383 5.44921875 7.29296875 C4.66893311 7.3086792 3.88864746 7.32438965 3.0847168 7.34057617 C0.50096147 6.91847304 -0.36292167 5.98510058 -2 4 C-1.34 2.68 -0.68 1.36 0 0 Z " fill="#BFD2D6" transform="translate(156,340)"/>
<path d="M0 0 C-0.49831724 3.68754757 -1.10067643 5.60490662 -4 8 C-4.66 6.35 -5.32 4.7 -6 3 C-3.375 0 -3.375 0 0 0 Z " fill="#505357" transform="translate(155,90)"/>
<path d="M0 0 C0.99 0.33 1.98 0.66 3 1 C2.1875 3.9375 2.1875 3.9375 1 7 C0.01 7.33 -0.98 7.66 -2 8 C-2 7.01 -2 6.02 -2 5 C-2.66 5 -3.32 5 -4 5 C-4 4.34 -4 3.68 -4 3 C-2.68 2.67 -1.36 2.34 0 2 C0 1.34 0 0.68 0 0 Z " fill="#32363A" transform="translate(187,203)"/>
<path d="M0 0 C1.0625 1.8125 1.0625 1.8125 2 4 C1.67 4.99 1.34 5.98 1 7 C-0.32 7 -1.64 7 -3 7 C-3.66 5.68 -4.32 4.36 -5 3 C-3.35 2.01 -1.7 1.02 0 0 Z " fill="#333536" transform="translate(250,144)"/>
<path d="M0 0 C-4.40086567 3.12319499 -8.79459302 4.03603575 -14 5 C-10.40034037 1.10492757 -5.33400457 -2.34696201 0 0 Z " fill="#1773CA" transform="translate(204,136)"/>
<path d="M0 0 C1.65 0.33 3.3 0.66 5 1 C5 1.66 5 2.32 5 3 C4.34 3 3.68 3 3 3 C2.34 4.65 1.68 6.3 1 8 C-1 5 -1 5 -0.625 2.3125 C-0.41875 1.549375 -0.2125 0.78625 0 0 Z " fill="#32373C" transform="translate(204,427)"/>
<path d="M0 0 C0.66 0.33 1.32 0.66 2 1 C-0.88406243 4.40843742 -2.3708265 5.86591384 -6.8125 6.8125 C-8.3903125 6.9053125 -8.3903125 6.9053125 -10 7 C-7.20283196 3.70921407 -3.80471422 1.93694542 0 0 Z " fill="#7D7E81" transform="translate(177,61)"/>
<path d="M0 0 C0.33 0.99 0.66 1.98 1 3 C0.071875 3.3403125 0.071875 3.3403125 -0.875 3.6875 C-3.62260139 5.38454792 -3.93210179 7.02514071 -5 10 C-5.99 10.495 -5.99 10.495 -7 11 C-6.57343918 7.90584243 -6.07001562 4.94119871 -5 2 C-2.375 0.4375 -2.375 0.4375 0 0 Z " fill="#1E5386" transform="translate(185,144)"/>
<path d="M0 0 C1.32 0 2.64 0 4 0 C4.66 1.32 5.32 2.64 6 4 C5.01 4 4.02 4 3 4 C3.33 4.66 3.66 5.32 4 6 C2.35 5.67 0.7 5.34 -1 5 C-0.67 3.35 -0.34 1.7 0 0 Z " fill="#303338" transform="translate(248,64)"/>
<path d="M0 0 C0.99 0.33 1.98 0.66 3 1 C3.33 2.65 3.66 4.3 4 6 C2.35 6.33 0.7 6.66 -1 7 C-0.67 4.69 -0.34 2.38 0 0 Z " fill="#32383C" transform="translate(185,415)"/>
<path d="M0 0 C0.66 0 1.32 0 2 0 C2.99 2.31 3.98 4.62 5 7 C4.01 7.33 3.02 7.66 2 8 C2 7.01 2 6.02 2 5 C1.34 5 0.68 5 0 5 C0 3.35 0 1.7 0 0 Z " fill="#41454D" transform="translate(176,187)"/>
<path d="M0 0 C3.3 0 6.6 0 10 0 C9.67 0.99 9.34 1.98 9 3 C2.25 2.25 2.25 2.25 0 0 Z " fill="#C2D4D9" transform="translate(206,426)"/>
<path d="M0 0 C0 3.10551666 -0.5393715 4.35261084 -2 7 C-3.32 6.67 -4.64 6.34 -6 6 C-6 5.34 -6 4.68 -6 4 C-4.03852126 2.61061923 -2.03833424 1.2739589 0 0 Z " fill="#30363B" transform="translate(259,404)"/>
<path d="M0 0 C1.485 0.99 1.485 0.99 3 2 C2.67 3.32 2.34 4.64 2 6 C1.01 6 0.02 6 -1 6 C-0.67 4.02 -0.34 2.04 0 0 Z " fill="#47525A" transform="translate(167,157)"/>
<path d="M0 0 C-1.32 1.32 -2.64 2.64 -4 4 C-4.99 3.01 -5.98 2.02 -7 1 C-3.375 -1.125 -3.375 -1.125 0 0 Z " fill="#323438" transform="translate(175,67)"/>
<path d="M0 0 C1.32 0.66 2.64 1.32 4 2 C2.02 3.32 0.04 4.64 -2 6 C-1.125 1.125 -1.125 1.125 0 0 Z " fill="#C5E1E4" transform="translate(181,132)"/>
<path d="M0 0 C0.33 0.99 0.66 1.98 1 3 C1.99 3.33 2.98 3.66 4 4 C2.02 4.99 2.02 4.99 0 6 C-1.32 5.01 -2.64 4.02 -4 3 C-3.01 2.67 -2.02 2.34 -1 2 C-0.67 1.34 -0.34 0.68 0 0 Z " fill="#5C5D61" transform="translate(246,66)"/>
<path d="" fill="#FFFFFF" transform="translate(0,0)"/>
<path d="" fill="#FFFFFF" transform="translate(0,0)"/>
<path d="" fill="#FFFFFF" transform="translate(0,0)"/>
<path d="" fill="#FFFFFF" transform="translate(0,0)"/>
<path d="" fill="#FFFFFF" transform="translate(0,0)"/>
<path d="" fill="#FFFFFF" transform="translate(0,0)"/>
<path d="" fill="#FFFFFF" transform="translate(0,0)"/>
<path d="" fill="#FFFFFF" transform="translate(0,0)"/>
<path d="" fill="#FFFFFF" transform="translate(0,0)"/>
<path d="" fill="#FFFFFF" transform="translate(0,0)"/>
<path d="" fill="#FFFFFF" transform="translate(0,0)"/>
<path d="" fill="#FFFFFF" transform="translate(0,0)"/>
<path d="" fill="#FFFFFF" transform="translate(0,0)"/>
<path d="" fill="#FFFFFF" transform="translate(0,0)"/>
<path d="" fill="#FFFFFF" transform="translate(0,0)"/>
<path d="" fill="#FFFFFF" transform="translate(0,0)"/>
<path d="" fill="#FFFFFF" transform="translate(0,0)"/>
<path d="" fill="#FFFFFF" transform="translate(0,0)"/>
<path d="" fill="#FFFFFF" transform="translate(0,0)"/>
<path d="" fill="#FFFFFF" transform="translate(0,0)"/>
<path d="" fill="#FFFFFF" transform="translate(0,0)"/>
<path d="" fill="#FFFFFF" transform="translate(0,0)"/>
<path d="" fill="#FFFFFF" transform="translate(0,0)"/>
<path d="" fill="#FFFFFF" transform="translate(0,0)"/>
<path d="" fill="#FFFFFF" transform="translate(0,0)"/>
<path d="" fill="#FFFFFF" transform="translate(0,0)"/>
<path d="" fill="#FFFFFF" transform="translate(0,0)"/>
<path d="" fill="#FFFFFF" transform="translate(0,0)"/>
<path d="" fill="#FFFFFF" transform="translate(0,0)"/>
<path d="" fill="#FFFFFF" transform="translate(0,0)"/>
<path d="" fill="#FFFFFF" transform="translate(0,0)"/>
<path d="" fill="#FFFFFF" transform="translate(0,0)"/>
<path d="" fill="#FFFFFF" transform="translate(0,0)"/>
<path d="" fill="#FFFFFF" transform="translate(0,0)"/>
<path d="" fill="#FFFFFF" transform="translate(0,0)"/>
<path d="" fill="#FFFFFF" transform="translate(0,0)"/>
<path d="" fill="#FFFFFF" transform="translate(0,0)"/>
<path d="" fill="#FFFFFF" transform="translate(0,0)"/>
<path d="" fill="#FFFFFF" transform="translate(0,0)"/>
<path d="" fill="#FFFFFF" transform="translate(0,0)"/>
<path d="" fill="#FFFFFF" transform="translate(0,0)"/>
<path d="" fill="#FFFFFF" transform="translate(0,0)"/>
<path d="" fill="#FFFFFF" transform="translate(0,0)"/>
<path d="" fill="#FFFFFF" transform="translate(0,0)"/>
<path d="" fill="#FFFFFF" transform="translate(0,0)"/>
<path d="" fill="#FFFFFF" transform="translate(0,0)"/>
<path d="" fill="#FFFFFF" transform="translate(0,0)"/>
<path d="" fill="#FFFFFF" transform="translate(0,0)"/>
<path d="" fill="#FFFFFF" transform="translate(0,0)"/>
<path d="" fill="#FFFFFF" transform="translate(0,0)"/>
<path d="" fill="#FFFFFF" transform="translate(0,0)"/>
<path d="" fill="#FFFFFF" transform="translate(0,0)"/>
<path d="" fill="#FFFFFF" transform="translate(0,0)"/>
<path d="" fill="#FFFFFF" transform="translate(0,0)"/>
<path d="" fill="#FFFFFF" transform="translate(0,0)"/>
<path d="" fill="#FFFFFF" transform="translate(0,0)"/>
</svg>
